<?xml version="1.0" encoding="UTF-8"?>
<svg width="168px" height="65px" viewBox="0 0 168 65" version="1.1" xmlns="http://www.w3.org/2000/svg" xmlns:xlink="http://www.w3.org/1999/xlink">
    <!-- Generator: Sketch 63.1 (92452) - https://sketch.com -->
    <title>Group 3</title>
    <desc>Created with Sketch.</desc>
    <g id="Desktop-" stroke="none" stroke-width="1" fill="none" fill-rule="evenodd">
        <g id="Desktop-Home" transform="translate(-636.000000, -177.000000)" fill="#FFFFFF" fill-rule="nonzero">
            <g id="logo-BWAT-2016-OK" transform="translate(636.000000, 66.000000)">
                <g id="Group-3" transform="translate(0.044920, 111.776823)">
                    <path d="M20.5283419,22.7667602 C16.6203206,22.7667602 13.0267377,23.900563 9.88235277,25.8053517 L9.88235277,5.3515492 C9.88235277,2.40366193 7.68128329,0.0453521119 4.94117639,0.0453521119 C2.20106948,0.0453521119 -1.52766688e-13,2.44901404 -1.52766688e-13,5.3515492 L-1.52766688e-13,43.4019711 C-1.52766688e-13,43.6740838 0.0449197853,43.9461964 0.0898395707,44.172957 C0.449197853,55.2842244 9.4780747,64.1732383 20.5283419,64.1732383 C31.8481278,64.1732383 41.011764,54.9214075 41.011764,43.4926753 C41.011764,32.018591 31.8481278,22.7667602 20.5283419,22.7667602 Z M20.5283419,55.2842244 C14.0598928,55.2842244 8.80427792,49.9780273 8.80427792,43.4473232 C8.80427792,36.9166191 14.0598928,31.610422 20.5283419,31.610422 C26.996791,31.610422 32.2524059,36.9166191 32.2524059,43.4473232 C32.2524059,49.9780273 26.996791,55.2842244 20.5283419,55.2842244 Z" id="Shape"></path>
                    <path d="M138.891976,43.4473232 C138.891976,32.018591 129.72834,22.7667602 118.408554,22.7667602 C107.088768,22.7667602 97.925132,32.018591 97.925132,43.4473232 C97.925132,54.8760554 107.088768,64.1278862 118.408554,64.1278862 C122.765773,64.1278862 126.808554,62.7673229 130.087698,60.4090131 L130.087698,60.3636609 C130.447057,62.4952102 132.243848,64.0825341 134.444917,64.0825341 C136.915506,64.0825341 138.891976,62.0870412 138.891976,59.592675 L138.891976,43.9008443 C138.936896,43.764788 138.936896,43.6287317 138.891976,43.4473232 C138.891976,43.4926753 138.891976,43.4473232 138.891976,43.4473232 Z M118.408554,55.1935202 C111.985025,55.1935202 106.77433,49.9326752 106.77433,43.4473232 C106.77433,36.9619712 111.985025,31.7011262 118.408554,31.7011262 C124.832083,31.7011262 130.042779,36.9619712 130.042779,43.4473232 C130.042779,49.9326752 124.832083,55.1935202 118.408554,55.1935202 Z" id="Shape"></path>
                    <path d="M162.968981,22.8121123 L152.143313,22.8121123 L152.143313,4.9433802 C152.143313,2.22225348 149.942243,-1.42108547e-14 147.247056,-1.42108547e-14 C144.551869,-1.42108547e-14 142.3508,2.22225348 142.3508,4.9433802 L142.3508,59.184506 C142.3508,61.9056327 144.551869,64.1278862 147.247056,64.1278862 C149.942243,64.1278862 152.143313,61.9056327 152.143313,59.184506 L152.143313,32.6988727 L162.968981,32.6988727 C165.664168,32.6988727 167.865238,30.4766192 167.865238,27.7554925 C167.865238,25.0343658 165.664168,22.8121123 162.968981,22.8121123 Z" id="Path"></path>
                    <path d="M74.1176458,33.7873234 C74.1176458,30.9754924 71.8716565,28.7078868 69.0866298,28.7078868 C66.3016031,28.7078868 64.0556139,30.9754924 64.0556139,33.7873234 C64.0556139,33.7873234 64.0556139,50.658309 64.0556139,50.9304217 C64.0556139,51.2478865 63.1122984,53.6061963 58.5754001,53.6969005 C53.2748654,53.7422526 53.4994643,48.5267597 53.4994643,48.5267597 L53.4994643,38.1411261 C53.4994643,35.3292952 51.2534751,33.0616896 48.4684484,33.0616896 C45.6834217,33.0616896 43.4374324,35.3292952 43.4374324,38.1411261 L43.4374324,48.5267597 C43.4374324,48.5267597 43.527272,63.7650693 58.5304803,63.7650693 C63.3368973,63.7650693 66.7957208,61.5428159 68.9518705,59.5019708 C71.0631004,61.5428159 74.5668436,63.9011257 79.50802,63.9011257 C94.4663086,63.9011257 94.6010679,48.6628161 94.6010679,48.6628161 L94.6010679,27.8008446 C94.6010679,24.9890137 92.3550786,22.7214081 89.570052,22.7214081 C86.7850253,22.7214081 84.539036,24.9890137 84.539036,27.8008446 L84.539036,48.5267597 C84.539036,48.5267597 84.7636349,53.7422526 79.4631003,53.6969005 C75.1058811,53.6515484 73.9828864,51.2478865 73.9828864,50.9304217 L73.9828864,33.7873234 L74.1176458,33.7873234 Z" id="Path"></path>
                </g>
            </g>
        </g>
    </g>
</svg>