<?xml version="1.0" encoding="UTF-8"?>
<svg width="82px" height="126px" viewBox="0 0 82 126" version="1.1" xmlns="http://www.w3.org/2000/svg" xmlns:xlink="http://www.w3.org/1999/xlink">
    <!-- Generator: Sketch 63.1 (92452) - https://sketch.com -->
    <title>Group 2</title>
    <desc>Created with Sketch.</desc>
    <g id="Desktop-" stroke="none" stroke-width="1" fill="none" fill-rule="evenodd">
        <g id="Desktop-Home" transform="translate(-679.000000, -66.000000)" fill="#FFFFFF" fill-rule="nonzero">
            <g id="logo-BWAT-2016-OK" transform="translate(636.000000, 66.000000)">
                <g id="Group-2" transform="translate(43.578461, -0.000000)">
                    <path d="M79.0584602,93.1772226 C79.0584602,93.1772226 38.4584609,124.071884 21.0584612,95.4640553 C5.08615376,69.232739 8.38769216,38.1138784 9.14615369,32.6434158 C3.61384609,45.6918142 4.26325641e-14,61.1615648 4.26325641e-14,76.4071161 C4.26325641e-14,113.713877 21.7276919,125.28256 40.4661532,125.28256 C56.0815375,125.28256 73.7492295,117.525265 79.1923063,93.1323828 L79.0584602,93.1772226" id="Path"></path>
                    <path d="M56.8846144,87.1686818 C56.8846144,79.4562264 50.6830761,73.2234863 43.00923,73.2234863 C35.335384,73.2234863 29.1338457,79.4562264 29.1338457,87.1686818 C29.1338457,94.8811372 35.335384,101.114116 43.00923,101.114116 C50.6830761,101.158717 56.8846144,94.8811372 56.8846144,87.1686818 Z M79.2815371,92.414945 C80.3076909,87.7067601 80.8430755,82.3708171 80.8430755,76.3622763 C80.8430755,39.0555153 59.1153836,1.42108547e-14 40.3769224,1.42108547e-14 C29.758461,1.42108547e-14 18.1138458,12.5999998 10.0830768,30.3117433 C9.85999983,33.1814941 7.67384602,63.3587178 19.6753843,86.6306035 L19.6753843,44.2120989 C19.6753843,40.8939495 22.1738458,38.2035581 25.2969226,38.2035581 C28.4199995,38.2035581 30.918461,40.8939495 30.918461,44.2120989 L30.918461,67.2149455 C34.4430763,65.0626323 38.5476917,63.8071164 42.9646147,63.8071164 C55.8138452,63.8071164 66.2092296,74.254803 66.2092296,87.1686818 C66.2092296,92.9978632 64.0676912,98.378646 60.5430759,102.459073 C67.4584604,99.9032011 74.0169218,96.1366532 79.1030756,93.0875429 L79.2815371,92.414945 Z" id="Shape"></path>
                </g>
            </g>
        </g>
    </g>
</svg>